<svg width="28" height="28" viewBox="0 0 28 28" fill="none" xmlns="http://www.w3.org/2000/svg">
<path d="M22.3255 3.87494H5.34596C4.53396 3.87494 3.875 4.5184 3.875 5.31075V22.3637C3.875 23.1571 4.53396 23.8014 5.34596 23.8014H22.3255C23.1381 23.8014 23.8015 23.1571 23.8015 22.3637V5.31075C23.8015 4.5184 23.1381 3.87494 22.3255 3.87494ZM9.78486 20.8551H6.82799V11.346H9.78486V20.8551ZM8.30643 10.0458C8.08136 10.0458 7.85851 10.0014 7.65059 9.91527C7.44267 9.82911 7.25377 9.70283 7.09468 9.54363C6.93558 9.38443 6.80942 9.19545 6.72339 8.98748C6.63736 8.7795 6.59316 8.55662 6.5933 8.33155C6.5933 7.87724 6.77378 7.44154 7.09503 7.12029C7.41627 6.79904 7.85198 6.61857 8.30629 6.61857C8.7606 6.61857 9.19631 6.79904 9.51755 7.12029C9.8388 7.44154 10.0193 7.87724 10.0193 8.33155C10.0193 8.78596 9.83886 9.22177 9.51768 9.54321C9.1965 9.86465 8.76083 10.0454 8.30643 10.0458ZM20.854 20.8551H17.9019V16.231C17.9019 15.1279 17.8803 13.7095 16.3656 13.7095C14.8274 13.7095 14.593 14.9109 14.593 16.151V20.8553H11.6386V11.346H14.474V12.6445H14.5144C14.909 11.8973 15.8732 11.1088 17.3113 11.1088C20.3019 11.1088 20.8543 13.0777 20.8543 15.639V20.8551H20.854Z" fill="white"/>
</svg>
