<svg width="17" height="14" viewBox="0 0 17 14" fill="none" xmlns="http://www.w3.org/2000/svg">
<path d="M16.2718 13.056V8.688C16.2718 7.056 15.9838 5.552 15.4078 4.176C14.8318 2.8 13.8558 1.408 12.4798 -3.8147e-06L9.98377 1.968C11.0078 3.024 11.7278 4 12.1438 4.896C12.5598 5.792 12.7678 6.752 12.7678 7.776L14.2558 6.384H9.55177V13.056H16.2718ZM6.71977 13.056V8.688C6.71977 7.056 6.43177 5.552 5.85577 4.176C5.27977 2.8 4.30377 1.408 2.92777 -3.8147e-06L0.431769 1.968C1.45577 3.024 2.17577 4 2.59177 4.896C3.00777 5.792 3.21577 6.752 3.21577 7.776L4.70377 6.384H-0.000230789V13.056H6.71977Z" fill="#029837"/>
</svg>
